<svg id="e6eab284-f4c8-4a11-9aa9-935b17921f7d" data-name="Ebene 1" xmlns="http://www.w3.org/2000/svg" viewBox="0 0 643 85.04"><defs><style>.ab1d6af3-ba9f-4d86-9a95-ccf3987cf70a{fill:none;}.fb685394-020a-4b4c-9bcf-54822c171f19{fill:#005a9a;}</style></defs><title>Helmholtz</title><rect class="ab1d6af3-ba9f-4d86-9a95-ccf3987cf70a" x="-123.55" y="-85.04" width="889.62" height="255.12"/><path class="fb685394-020a-4b4c-9bcf-54822c171f19" d="M45.45,34.42V0H61.77V85H45.45V50.74H16.31V85H0V0H16.31V34.42Z"/><path class="fb685394-020a-4b4c-9bcf-54822c171f19" d="M133.67,0V16.31H96.36V34.42h32.39V50.74H96.36v18h37.31V85H88.09a2.39,2.39,0,0,1-1.93-.84l-5.27-5.27A2.41,2.41,0,0,1,80.05,77V8a2.4,2.4,0,0,1,.84-1.92L86.16.84A2.79,2.79,0,0,1,88.09,0Z"/><path class="fb685394-020a-4b4c-9bcf-54822c171f19" d="M158.9,85A2.39,2.39,0,0,1,157,84.2l-5.27-5.27a2.38,2.38,0,0,1-.84-1.93V0h16.31V68.73h35.5V85Z"/><path class="fb685394-020a-4b4c-9bcf-54822c171f19" d="M290.26,0V85H274V38L260.64,65.85a2.78,2.78,0,0,1-2.41,1.56h-9.59a2.82,2.82,0,0,1-2.52-1.56L232.81,38V85H216.5V0h16.31l20.63,43.18L274,0Z"/><path class="fb685394-020a-4b4c-9bcf-54822c171f19" d="M352.92,34.42V0h16.32V85H352.92V50.74H323.78V85H307.47V0h16.31V34.42Z"/><path class="fb685394-020a-4b4c-9bcf-54822c171f19" d="M434.78,4.07l8.51,8.4a13.62,13.62,0,0,1,4,9.59V63a13.63,13.63,0,0,1-4,9.6l-8.51,8.51a13.63,13.63,0,0,1-9.6,4H406.11a13.41,13.41,0,0,1-9.72-4L388,72.57a13.63,13.63,0,0,1-4-9.6V22.06a13.62,13.62,0,0,1,4-9.59l8.39-8.4A13.76,13.76,0,0,1,406.11,0h19.07A14,14,0,0,1,434.78,4.07Zm-3.84,56.74V24.35a2.86,2.86,0,0,0-.84-1.93l-5.16-5.27a3.4,3.4,0,0,0-2-.84H408.27a3.09,3.09,0,0,0-1.92.84l-5.16,5.27a2.41,2.41,0,0,0-.84,1.93V60.81a2.56,2.56,0,0,0,.84,1.92l5.16,5.16a2.59,2.59,0,0,0,1.92.84H422.9a2.85,2.85,0,0,0,2-.84l5.16-5.16A3.09,3.09,0,0,0,430.94,60.81Z"/><path class="fb685394-020a-4b4c-9bcf-54822c171f19" d="M469.72,85a2.39,2.39,0,0,1-1.92-.84l-5.27-5.27a2.38,2.38,0,0,1-.84-1.93V0H478V68.73h35.5V85Z"/><path class="fb685394-020a-4b4c-9bcf-54822c171f19" d="M512.33,16.31V0h61.41V16.31H551.19V85H534.88V16.31Z"/><path class="fb685394-020a-4b4c-9bcf-54822c171f19" d="M636.88.84l5.28,5.27A2.9,2.9,0,0,1,643,8v4.2l-35.75,56.5h35.27V85h-48.7a2.39,2.39,0,0,1-1.92-.84l-5.28-5.27a2.86,2.86,0,0,1-.84-1.93V72.09l35.27-55.78H585.3V0H635A2.79,2.79,0,0,1,636.88.84Z"/></svg>