<?xml version="1.0" encoding="UTF-8"?>
<svg xmlns="http://www.w3.org/2000/svg" xmlns:xlink="http://www.w3.org/1999/xlink" width="209" height="124" viewBox="0 0 209 124">
<path fill="none" stroke-width="85.0394" stroke-linecap="round" stroke-linejoin="round" stroke="rgb(27.392578%, 23.596191%, 49.14856%)" stroke-opacity="1" stroke-miterlimit="2.6131" d="M 1542.773438 5181.875 C 1424.492188 5229.921875 1346.09375 5337.8125 1346.09375 5453.90625 C 1346.09375 5619.21875 1498.90625 5754.0625 1686.289062 5754.0625 C 1873.632812 5754.0625 2026.445312 5619.21875 2026.445312 5453.90625 C 2026.445312 5445.664062 2025.117188 5435.117188 2025.117188 5428.085938 " transform="matrix(0.1, 0, 0, -0.1, -74, 588)"/>
<path fill="none" stroke-width="85.0394" stroke-linecap="round" stroke-linejoin="round" stroke="rgb(27.392578%, 23.596191%, 49.14856%)" stroke-opacity="1" stroke-miterlimit="2.6131" d="M 1549.609375 5177.539062 L 1420.273438 4697.265625 L 1942.5 4697.265625 " transform="matrix(0.1, 0, 0, -0.1, -74, 588)"/>
<path fill="none" stroke-width="85.0394" stroke-linecap="round" stroke-linejoin="round" stroke="rgb(27.392578%, 23.596191%, 49.14856%)" stroke-opacity="1" stroke-miterlimit="2.6131" d="M 1820.429688 5167.070312 L 1949.804688 4693.4375 L 1427.539062 4693.4375 " transform="matrix(0.1, 0, 0, -0.1, -74, 588)"/>
<path fill="none" stroke-width="85.0394" stroke-linecap="round" stroke-linejoin="round" stroke="rgb(27.392578%, 23.596191%, 49.14856%)" stroke-opacity="1" stroke-miterlimit="2.6131" d="M 1919.804688 5223.515625 C 1888.125 5211.601562 1848.515625 5198.007812 1814.140625 5191.171875 " transform="matrix(0.1, 0, 0, -0.1, -74, 588)"/>
<path fill="none" stroke-width="85.0394" stroke-linecap="round" stroke-linejoin="round" stroke="rgb(27.392578%, 23.596191%, 49.14856%)" stroke-opacity="1" stroke-miterlimit="2.6131" d="M 2023.4375 5415.390625 C 1979.882812 5398.242188 1928.125 5387.929688 1877.5 5387.929688 C 1816.289062 5387.929688 1753.90625 5402.539062 1704.453125 5427.421875 " transform="matrix(0.1, 0, 0, -0.1, -74, 588)"/>
<path fill-rule="evenodd" fill="rgb(16.419983%, 59.391785%, 43.582153%)" fill-opacity="1" d="M 129.863281 85.660156 L 133.078125 97.285156 L 208.234375 0.160156 L 195.855469 0.164062 L 129.863281 85.660156 "/>
<path fill-rule="evenodd" fill="rgb(16.419983%, 59.391785%, 43.582153%)" fill-opacity="1" d="M 130.480469 0.140625 L 142.671875 0.140625 L 172.476562 38.265625 L 165.433594 45.6875 L 130.480469 0.140625 "/>
<path fill-rule="evenodd" fill="rgb(16.419983%, 59.391785%, 43.582153%)" fill-opacity="1" d="M 0.257812 0.144531 L 10.152344 0.167969 L 10.148438 46.742188 L 45.597656 0.117188 L 57.355469 0.15625 L 25.449219 42.449219 L 59.113281 85.78125 L 55.75 97.261719 L 19.625 50.4375 L 10.164062 62.71875 L 10.164062 96.726562 L 0.230469 96.726562 L 0.257812 0.144531 "/>
</svg>
